<?xml version="1.0" encoding="UTF-8" ?>
<svg version="1.1" width="90" height="15" xmlns="http://www.w3.org/2000/svg" shape-rendering="crispEdges">
<rect x="5" y="0" width="2" height="1" fill="#FFFACB" />
<rect x="7" y="0" width="3" height="2" fill="#FFF59D" />
<rect x="20" y="0" width="2" height="1" fill="#EEEEEE" />
<rect x="22" y="0" width="3" height="2" fill="#E0E0E0" />
<rect x="35" y="0" width="2" height="1" fill="#BCAAA4" />
<rect x="37" y="0" width="3" height="2" fill="#A1887F" />
<rect x="49" y="0" width="33" height="2" fill="#B0120A" />
<rect x="3" y="1" width="3" height="1" fill="#FFFACB" />
<rect x="6" y="1" width="1" height="1" fill="#FFF59D" />
<rect x="10" y="1" width="2" height="1" fill="#FDD835" />
<rect x="18" y="1" width="1" height="3" fill="#E0E0E0" />
<rect x="19" y="1" width="2" height="1" fill="#EEEEEE" />
<rect x="21" y="1" width="1" height="1" fill="#E0E0E0" />
<rect x="25" y="1" width="2" height="1" fill="#BDBDBD" />
<rect x="33" y="1" width="3" height="1" fill="#BCAAA4" />
<rect x="36" y="1" width="1" height="1" fill="#A1887F" />
<rect x="40" y="1" width="2" height="1" fill="#8D6E63" />
<rect x="48" y="1" width="1" height="13" fill="#B0120A" />
<rect x="82" y="1" width="2" height="10" fill="#B0120A" />
<rect x="2" y="2" width="1" height="1" fill="#FFFACB" />
<rect x="3" y="2" width="3" height="1" fill="#FFF59D" />
<rect x="6" y="2" width="3" height="1" fill="#FBC02D" />
<rect x="9" y="2" width="1" height="1" fill="#FFF59D" />
<rect x="10" y="2" width="1" height="1" fill="#FDD835" />
<rect x="11" y="2" width="2" height="2" fill="#FBC02D" />
<rect x="17" y="2" width="1" height="1" fill="#EEEEEE" />
<rect x="19" y="2" width="2" height="1" fill="#E0E0E0" />
<rect x="21" y="2" width="3" height="1" fill="#9E9E9E" />
<rect x="24" y="2" width="1" height="1" fill="#E0E0E0" />
<rect x="25" y="2" width="1" height="1" fill="#BDBDBD" />
<rect x="26" y="2" width="2" height="2" fill="#9E9E9E" />
<rect x="32" y="2" width="1" height="1" fill="#BCAAA4" />
<rect x="33" y="2" width="3" height="1" fill="#A1887F" />
<rect x="36" y="2" width="3" height="1" fill="#795548" />
<rect x="39" y="2" width="1" height="1" fill="#A1887F" />
<rect x="40" y="2" width="1" height="1" fill="#8D6E63" />
<rect x="41" y="2" width="2" height="2" fill="#795548" />
<rect x="47" y="2" width="1" height="11" fill="#B0120A" />
<rect x="49" y="2" width="3" height="1" fill="#B0120A" />
<rect x="52" y="2" width="1" height="1" fill="#FFFFFF" />
<rect x="53" y="2" width="15" height="1" fill="#B0120A" />
<rect x="68" y="2" width="2" height="1" fill="#FFFFFF" />
<rect x="70" y="2" width="8" height="1" fill="#B0120A" />
<rect x="78" y="2" width="1" height="2" fill="#FFFFFF" />
<rect x="79" y="2" width="1" height="1" fill="#B0120A" />
<rect x="80" y="2" width="1" height="1" fill="#FFFFFF" />
<rect x="81" y="2" width="1" height="6" fill="#B0120A" />
<rect x="84" y="2" width="1" height="11" fill="#B0120A" />
<rect x="1" y="3" width="1" height="3" fill="#FFFACB" />
<rect x="2" y="3" width="2" height="1" fill="#FFF59D" />
<rect x="4" y="3" width="2" height="1" fill="#FBC02D" />
<rect x="6" y="3" width="2" height="1" fill="#FFFACB" />
<rect x="8" y="3" width="1" height="2" fill="#FDD835" />
<rect x="9" y="3" width="2" height="1" fill="#FFFACB" />
<rect x="13" y="3" width="1" height="1" fill="#FDD835" />
<rect x="16" y="3" width="1" height="3" fill="#EEEEEE" />
<rect x="17" y="3" width="1" height="3" fill="#E0E0E0" />
<rect x="19" y="3" width="2" height="1" fill="#9E9E9E" />
<rect x="21" y="3" width="2" height="1" fill="#EEEEEE" />
<rect x="23" y="3" width="1" height="2" fill="#BDBDBD" />
<rect x="24" y="3" width="2" height="1" fill="#EEEEEE" />
<rect x="28" y="3" width="1" height="1" fill="#BDBDBD" />
<rect x="31" y="3" width="1" height="3" fill="#BCAAA4" />
<rect x="32" y="3" width="2" height="1" fill="#A1887F" />
<rect x="34" y="3" width="2" height="1" fill="#795548" />
<rect x="36" y="3" width="2" height="1" fill="#BCAAA4" />
<rect x="38" y="3" width="1" height="2" fill="#8D6E63" />
<rect x="39" y="3" width="2" height="1" fill="#BCAAA4" />
<rect x="43" y="3" width="1" height="2" fill="#8D6E63" />
<rect x="46" y="3" width="1" height="9" fill="#B0120A" />
<rect x="49" y="3" width="2" height="1" fill="#B0120A" />
<rect x="51" y="3" width="1" height="1" fill="#FFFFFF" />
<rect x="52" y="3" width="1" height="3" fill="#B0120A" />
<rect x="53" y="3" width="1" height="1" fill="#FFFFFF" />
<rect x="54" y="3" width="13" height="1" fill="#B0120A" />
<rect x="67" y="3" width="1" height="1" fill="#FFFFFF" />
<rect x="68" y="3" width="2" height="1" fill="#B0120A" />
<rect x="70" y="3" width="1" height="2" fill="#FFFFFF" />
<rect x="71" y="3" width="7" height="1" fill="#B0120A" />
<rect x="79" y="3" width="1" height="4" fill="#FFFFFF" />
<rect x="80" y="3" width="1" height="4" fill="#B0120A" />
<rect x="85" y="3" width="1" height="9" fill="#B0120A" />
<rect x="2" y="4" width="1" height="2" fill="#FFF59D" />
<rect x="3" y="4" width="1" height="2" fill="#FBC02D" />
<rect x="4" y="4" width="3" height="2" fill="#FFFACB" />
<rect x="7" y="4" width="1" height="2" fill="#FDD835" />
<rect x="9" y="4" width="2" height="2" fill="#FBC02D" />
<rect x="11" y="4" width="1" height="1" fill="#FFFACB" />
<rect x="12" y="4" width="1" height="1" fill="#FDD835" />
<rect x="13" y="4" width="1" height="8" fill="#FFF176" />
<rect x="18" y="4" width="1" height="2" fill="#9E9E9E" />
<rect x="19" y="4" width="3" height="2" fill="#EEEEEE" />
<rect x="22" y="4" width="1" height="2" fill="#BDBDBD" />
<rect x="24" y="4" width="2" height="2" fill="#9E9E9E" />
<rect x="26" y="4" width="1" height="1" fill="#EEEEEE" />
<rect x="27" y="4" width="1" height="1" fill="#BDBDBD" />
<rect x="28" y="4" width="1" height="8" fill="#E0E0E0" />
<rect x="32" y="4" width="1" height="2" fill="#A1887F" />
<rect x="33" y="4" width="1" height="2" fill="#795548" />
<rect x="34" y="4" width="3" height="1" fill="#BCAAA4" />
<rect x="37" y="4" width="1" height="2" fill="#8D6E63" />
<rect x="39" y="4" width="2" height="2" fill="#795548" />
<rect x="41" y="4" width="1" height="1" fill="#BCAAA4" />
<rect x="42" y="4" width="1" height="1" fill="#8D6E63" />
<rect x="49" y="4" width="1" height="1" fill="#B0120A" />
<rect x="50" y="4" width="1" height="7" fill="#FFFFFF" />
<rect x="51" y="4" width="1" height="7" fill="#B0120A" />
<rect x="53" y="4" width="13" height="1" fill="#B0120A" />
<rect x="66" y="4" width="1" height="8" fill="#FFFFFF" />
<rect x="67" y="4" width="1" height="7" fill="#B0120A" />
<rect x="68" y="4" width="1" height="1" fill="#FFFFFF" />
<rect x="69" y="4" width="1" height="1" fill="#B0120A" />
<rect x="71" y="4" width="1" height="1" fill="#FFFFFF" />
<rect x="72" y="4" width="2" height="1" fill="#B0120A" />
<rect x="74" y="4" width="4" height="1" fill="#FFFFFF" />
<rect x="78" y="4" width="1" height="3" fill="#B0120A" />
<rect x="0" y="5" width="1" height="1" fill="#FFFACB" />
<rect x="8" y="5" width="1" height="3" fill="#FBC02D" />
<rect x="11" y="5" width="1" height="1" fill="#FFF59D" />
<rect x="12" y="5" width="1" height="2" fill="#FFFACB" />
<rect x="14" y="5" width="1" height="5" fill="#FFF176" />
<rect x="15" y="5" width="1" height="1" fill="#EEEEEE" />
<rect x="23" y="5" width="1" height="3" fill="#9E9E9E" />
<rect x="26" y="5" width="1" height="1" fill="#E0E0E0" />
<rect x="27" y="5" width="1" height="2" fill="#EEEEEE" />
<rect x="29" y="5" width="1" height="5" fill="#E0E0E0" />
<rect x="30" y="5" width="1" height="1" fill="#BCAAA4" />
<rect x="34" y="5" width="2" height="1" fill="#BCAAA4" />
<rect x="36" y="5" width="1" height="2" fill="#8D6E63" />
<rect x="38" y="5" width="1" height="3" fill="#795548" />
<rect x="41" y="5" width="1" height="1" fill="#A1887F" />
<rect x="42" y="5" width="1" height="2" fill="#BCAAA4" />
<rect x="43" y="5" width="2" height="5" fill="#A1887F" />
<rect x="45" y="5" width="1" height="5" fill="#B0120A" />
<rect x="49" y="5" width="1" height="5" fill="#FFFFFF" />
<rect x="53" y="5" width="1" height="1" fill="#FFFFFF" />
<rect x="54" y="5" width="3" height="1" fill="#B0120A" />
<rect x="57" y="5" width="1" height="1" fill="#FFFFFF" />
<rect x="58" y="5" width="3" height="1" fill="#B0120A" />
<rect x="61" y="5" width="1" height="1" fill="#FFFFFF" />
<rect x="62" y="5" width="3" height="1" fill="#B0120A" />
<rect x="65" y="5" width="1" height="6" fill="#FFFFFF" />
<rect x="68" y="5" width="1" height="3" fill="#B0120A" />
<rect x="69" y="5" width="1" height="1" fill="#FFFFFF" />
<rect x="70" y="5" width="2" height="3" fill="#B0120A" />
<rect x="72" y="5" width="2" height="1" fill="#FFFFFF" />
<rect x="74" y="5" width="2" height="3" fill="#B0120A" />
<rect x="76" y="5" width="1" height="7" fill="#FFFFFF" />
<rect x="77" y="5" width="1" height="3" fill="#B0120A" />
<rect x="86" y="5" width="1" height="5" fill="#B0120A" />
<rect x="0" y="6" width="2" height="3" fill="#FFF59D" />
<rect x="2" y="6" width="1" height="3" fill="#FBC02D" />
<rect x="3" y="6" width="2" height="1" fill="#FFFACB" />
<rect x="5" y="6" width="2" height="1" fill="#FDD835" />
<rect x="7" y="6" width="1" height="3" fill="#FBC02D" />
<rect x="9" y="6" width="1" height="1" fill="#FBC02D" />
<rect x="10" y="6" width="2" height="1" fill="#FDD835" />
<rect x="15" y="6" width="2" height="3" fill="#E0E0E0" />
<rect x="17" y="6" width="1" height="3" fill="#9E9E9E" />
<rect x="18" y="6" width="2" height="1" fill="#EEEEEE" />
<rect x="20" y="6" width="2" height="1" fill="#BDBDBD" />
<rect x="22" y="6" width="1" height="3" fill="#9E9E9E" />
<rect x="24" y="6" width="1" height="1" fill="#9E9E9E" />
<rect x="25" y="6" width="2" height="1" fill="#BDBDBD" />
<rect x="30" y="6" width="2" height="4" fill="#A1887F" />
<rect x="32" y="6" width="1" height="4" fill="#795548" />
<rect x="33" y="6" width="2" height="1" fill="#BCAAA4" />
<rect x="35" y="6" width="1" height="2" fill="#8D6E63" />
<rect x="37" y="6" width="1" height="3" fill="#795548" />
<rect x="39" y="6" width="1" height="1" fill="#795548" />
<rect x="40" y="6" width="2" height="1" fill="#8D6E63" />
<rect x="52" y="6" width="1" height="3" fill="#FFFFFF" />
<rect x="53" y="6" width="1" height="3" fill="#B0120A" />
<rect x="54" y="6" width="1" height="3" fill="#FFFFFF" />
<rect x="55" y="6" width="1" height="4" fill="#B0120A" />
<rect x="56" y="6" width="1" height="3" fill="#FFFFFF" />
<rect x="57" y="6" width="1" height="3" fill="#B0120A" />
<rect x="58" y="6" width="1" height="1" fill="#FFFFFF" />
<rect x="59" y="6" width="1" height="5" fill="#B0120A" />
<rect x="60" y="6" width="1" height="3" fill="#FFFFFF" />
<rect x="61" y="6" width="1" height="3" fill="#B0120A" />
<rect x="62" y="6" width="1" height="3" fill="#FFFFFF" />
<rect x="63" y="6" width="2" height="3" fill="#B0120A" />
<rect x="69" y="6" width="1" height="1" fill="#B0120A" />
<rect x="72" y="6" width="2" height="1" fill="#B0120A" />
<rect x="3" y="7" width="1" height="1" fill="#FFFACB" />
<rect x="4" y="7" width="2" height="1" fill="#FDD835" />
<rect x="6" y="7" width="1" height="3" fill="#FBC02D" />
<rect x="9" y="7" width="2" height="1" fill="#FDD835" />
<rect x="11" y="7" width="1" height="2" fill="#FFF176" />
<rect x="12" y="7" width="1" height="2" fill="#FBC02D" />
<rect x="18" y="7" width="1" height="1" fill="#EEEEEE" />
<rect x="19" y="7" width="2" height="1" fill="#BDBDBD" />
<rect x="21" y="7" width="1" height="3" fill="#9E9E9E" />
<rect x="24" y="7" width="2" height="1" fill="#BDBDBD" />
<rect x="26" y="7" width="1" height="2" fill="#E0E0E0" />
<rect x="27" y="7" width="1" height="2" fill="#9E9E9E" />
<rect x="33" y="7" width="1" height="1" fill="#BCAAA4" />
<rect x="34" y="7" width="1" height="2" fill="#8D6E63" />
<rect x="36" y="7" width="1" height="3" fill="#795548" />
<rect x="39" y="7" width="2" height="1" fill="#8D6E63" />
<rect x="41" y="7" width="1" height="2" fill="#A1887F" />
<rect x="42" y="7" width="1" height="2" fill="#795548" />
<rect x="58" y="7" width="1" height="1" fill="#B0120A" />
<rect x="69" y="7" width="1" height="1" fill="#FFFFFF" />
<rect x="72" y="7" width="1" height="1" fill="#B0120A" />
<rect x="73" y="7" width="1" height="1" fill="#FFFFFF" />
<rect x="78" y="7" width="1" height="1" fill="#FFFFFF" />
<rect x="79" y="7" width="1" height="1" fill="#B0120A" />
<rect x="80" y="7" width="1" height="1" fill="#FFFFFF" />
<rect x="3" y="8" width="2" height="1" fill="#FDD835" />
<rect x="5" y="8" width="1" height="3" fill="#FBC02D" />
<rect x="8" y="8" width="2" height="1" fill="#FDD835" />
<rect x="10" y="8" width="1" height="3" fill="#FFF176" />
<rect x="18" y="8" width="2" height="1" fill="#BDBDBD" />
<rect x="20" y="8" width="1" height="3" fill="#9E9E9E" />
<rect x="23" y="8" width="2" height="1" fill="#BDBDBD" />
<rect x="25" y="8" width="1" height="3" fill="#E0E0E0" />
<rect x="33" y="8" width="1" height="1" fill="#8D6E63" />
<rect x="35" y="8" width="1" height="3" fill="#795548" />
<rect x="38" y="8" width="2" height="1" fill="#8D6E63" />
<rect x="40" y="8" width="1" height="3" fill="#A1887F" />
<rect x="58" y="8" width="1" height="1" fill="#FFFFFF" />
<rect x="68" y="8" width="1" height="1" fill="#FFFFFF" />
<rect x="69" y="8" width="1" height="1" fill="#B0120A" />
<rect x="70" y="8" width="1" height="1" fill="#FFFFFF" />
<rect x="71" y="8" width="1" height="7" fill="#B0120A" />
<rect x="72" y="8" width="1" height="3" fill="#FFFFFF" />
<rect x="73" y="8" width="1" height="3" fill="#B0120A" />
<rect x="74" y="8" width="1" height="3" fill="#FFFFFF" />
<rect x="75" y="8" width="1" height="1" fill="#B0120A" />
<rect x="77" y="8" width="1" height="1" fill="#FFFFFF" />
<rect x="78" y="8" width="1" height="2" fill="#B0120A" />
<rect x="79" y="8" width="1" height="3" fill="#FFFFFF" />
<rect x="80" y="8" width="1" height="3" fill="#B0120A" />
<rect x="81" y="8" width="1" height="3" fill="#FFFFFF" />
<rect x="0" y="9" width="1" height="1" fill="#FFF59D" />
<rect x="1" y="9" width="2" height="1" fill="#FFF176" />
<rect x="3" y="9" width="1" height="2" fill="#FFFACB" />
<rect x="4" y="9" width="1" height="2" fill="#FBC02D" />
<rect x="7" y="9" width="2" height="1" fill="#FDD835" />
<rect x="9" y="9" width="1" height="2" fill="#FFF176" />
<rect x="11" y="9" width="1" height="2" fill="#FBC02D" />
<rect x="12" y="9" width="1" height="4" fill="#FFF176" />
<rect x="15" y="9" width="4" height="1" fill="#EEEEEE" />
<rect x="19" y="9" width="1" height="2" fill="#9E9E9E" />
<rect x="22" y="9" width="2" height="1" fill="#BDBDBD" />
<rect x="24" y="9" width="1" height="2" fill="#E0E0E0" />
<rect x="26" y="9" width="1" height="2" fill="#9E9E9E" />
<rect x="27" y="9" width="1" height="4" fill="#E0E0E0" />
<rect x="33" y="9" width="1" height="2" fill="#BCAAA4" />
<rect x="34" y="9" width="1" height="2" fill="#795548" />
<rect x="37" y="9" width="2" height="1" fill="#8D6E63" />
<rect x="39" y="9" width="1" height="2" fill="#A1887F" />
<rect x="41" y="9" width="1" height="2" fill="#795548" />
<rect x="42" y="9" width="1" height="4" fill="#A1887F" />
<rect x="52" y="9" width="1" height="2" fill="#B0120A" />
<rect x="53" y="9" width="1" height="1" fill="#FFFFFF" />
<rect x="54" y="9" width="1" height="1" fill="#B0120A" />
<rect x="56" y="9" width="1" height="1" fill="#B0120A" />
<rect x="57" y="9" width="1" height="1" fill="#FFFFFF" />
<rect x="58" y="9" width="1" height="2" fill="#B0120A" />
<rect x="60" y="9" width="1" height="2" fill="#B0120A" />
<rect x="61" y="9" width="1" height="1" fill="#FFFFFF" />
<rect x="62" y="9" width="1" height="6" fill="#B0120A" />
<rect x="63" y="9" width="1" height="1" fill="#FFFFFF" />
<rect x="64" y="9" width="1" height="6" fill="#B0120A" />
<rect x="68" y="9" width="1" height="1" fill="#B0120A" />
<rect x="69" y="9" width="1" height="2" fill="#FFFFFF" />
<rect x="70" y="9" width="1" height="6" fill="#B0120A" />
<rect x="75" y="9" width="1" height="1" fill="#FFFFFF" />
<rect x="77" y="9" width="1" height="2" fill="#B0120A" />
<rect x="1" y="10" width="2" height="1" fill="#FDD835" />
<rect x="6" y="10" width="2" height="1" fill="#FDD835" />
<rect x="8" y="10" width="1" height="2" fill="#FFF176" />
<rect x="16" y="10" width="2" height="1" fill="#BDBDBD" />
<rect x="18" y="10" width="1" height="1" fill="#EEEEEE" />
<rect x="21" y="10" width="2" height="1" fill="#BDBDBD" />
<rect x="23" y="10" width="1" height="2" fill="#E0E0E0" />
<rect x="31" y="10" width="2" height="1" fill="#8D6E63" />
<rect x="36" y="10" width="2" height="1" fill="#8D6E63" />
<rect x="38" y="10" width="1" height="2" fill="#A1887F" />
<rect x="43" y="10" width="1" height="2" fill="#A1887F" />
<rect x="49" y="10" width="1" height="4" fill="#B0120A" />
<rect x="53" y="10" width="1" height="1" fill="#B0120A" />
<rect x="54" y="10" width="3" height="1" fill="#FFFFFF" />
<rect x="57" y="10" width="1" height="1" fill="#B0120A" />
<rect x="61" y="10" width="1" height="2" fill="#B0120A" />
<rect x="63" y="10" width="1" height="5" fill="#B0120A" />
<rect x="68" y="10" width="1" height="2" fill="#FFFFFF" />
<rect x="75" y="10" width="1" height="5" fill="#B0120A" />
<rect x="78" y="10" width="1" height="1" fill="#FFFFFF" />
<rect x="1" y="11" width="1" height="1" fill="#FDD835" />
<rect x="2" y="11" width="2" height="2" fill="#FBC02D" />
<rect x="4" y="11" width="1" height="1" fill="#FFFACB" />
<rect x="5" y="11" width="2" height="1" fill="#FDD835" />
<rect x="7" y="11" width="1" height="1" fill="#FFF176" />
<rect x="9" y="11" width="2" height="1" fill="#FBC02D" />
<rect x="11" y="11" width="1" height="3" fill="#FFF176" />
<rect x="16" y="11" width="1" height="1" fill="#BDBDBD" />
<rect x="17" y="11" width="2" height="2" fill="#9E9E9E" />
<rect x="19" y="11" width="1" height="1" fill="#EEEEEE" />
<rect x="20" y="11" width="2" height="1" fill="#BDBDBD" />
<rect x="22" y="11" width="1" height="1" fill="#E0E0E0" />
<rect x="24" y="11" width="2" height="1" fill="#9E9E9E" />
<rect x="26" y="11" width="1" height="3" fill="#E0E0E0" />
<rect x="31" y="11" width="1" height="1" fill="#8D6E63" />
<rect x="32" y="11" width="2" height="2" fill="#795548" />
<rect x="34" y="11" width="1" height="1" fill="#BCAAA4" />
<rect x="35" y="11" width="2" height="1" fill="#8D6E63" />
<rect x="37" y="11" width="1" height="1" fill="#A1887F" />
<rect x="39" y="11" width="2" height="1" fill="#795548" />
<rect x="41" y="11" width="1" height="3" fill="#A1887F" />
<rect x="50" y="11" width="1" height="4" fill="#B0120A" />
<rect x="51" y="11" width="4" height="1" fill="#FFFFFF" />
<rect x="55" y="11" width="2" height="4" fill="#B0120A" />
<rect x="57" y="11" width="4" height="1" fill="#FFFFFF" />
<rect x="65" y="11" width="1" height="4" fill="#B0120A" />
<rect x="67" y="11" width="1" height="1" fill="#FFFFFF" />
<rect x="69" y="11" width="1" height="4" fill="#B0120A" />
<rect x="72" y="11" width="1" height="4" fill="#B0120A" />
<rect x="73" y="11" width="1" height="1" fill="#FFFFFF" />
<rect x="74" y="11" width="1" height="4" fill="#B0120A" />
<rect x="77" y="11" width="1" height="1" fill="#FFFFFF" />
<rect x="78" y="11" width="2" height="4" fill="#B0120A" />
<rect x="80" y="11" width="1" height="1" fill="#FFFFFF" />
<rect x="81" y="11" width="1" height="4" fill="#B0120A" />
<rect x="82" y="11" width="1" height="1" fill="#FFFFFF" />
<rect x="83" y="11" width="1" height="3" fill="#B0120A" />
<rect x="4" y="12" width="1" height="2" fill="#FDD835" />
<rect x="5" y="12" width="2" height="1" fill="#FFFACB" />
<rect x="7" y="12" width="2" height="1" fill="#FBC02D" />
<rect x="9" y="12" width="2" height="2" fill="#FFF176" />
<rect x="19" y="12" width="1" height="2" fill="#BDBDBD" />
<rect x="20" y="12" width="2" height="1" fill="#EEEEEE" />
<rect x="22" y="12" width="2" height="1" fill="#9E9E9E" />
<rect x="24" y="12" width="2" height="2" fill="#E0E0E0" />
<rect x="34" y="12" width="1" height="2" fill="#8D6E63" />
<rect x="35" y="12" width="2" height="1" fill="#BCAAA4" />
<rect x="37" y="12" width="2" height="1" fill="#795548" />
<rect x="39" y="12" width="2" height="2" fill="#A1887F" />
<rect x="51" y="12" width="4" height="3" fill="#B0120A" />
<rect x="57" y="12" width="2" height="3" fill="#B0120A" />
<rect x="59" y="12" width="1" height="1" fill="#FFFFFF" />
<rect x="60" y="12" width="1" height="3" fill="#B0120A" />
<rect x="61" y="12" width="1" height="1" fill="#FFFFFF" />
<rect x="66" y="12" width="3" height="3" fill="#B0120A" />
<rect x="73" y="12" width="1" height="3" fill="#B0120A" />
<rect x="76" y="12" width="2" height="3" fill="#B0120A" />
<rect x="80" y="12" width="1" height="3" fill="#B0120A" />
<rect x="82" y="12" width="1" height="2" fill="#B0120A" />
<rect x="3" y="13" width="1" height="1" fill="#FDD835" />
<rect x="5" y="13" width="4" height="2" fill="#FFF176" />
<rect x="18" y="13" width="1" height="1" fill="#BDBDBD" />
<rect x="20" y="13" width="4" height="2" fill="#E0E0E0" />
<rect x="33" y="13" width="1" height="1" fill="#8D6E63" />
<rect x="35" y="13" width="4" height="2" fill="#A1887F" />
<rect x="59" y="13" width="1" height="2" fill="#B0120A" />
<rect x="61" y="13" width="1" height="2" fill="#B0120A" />
<rect x="9" y="14" width="1" height="1" fill="#FFF176" />
<rect x="24" y="14" width="1" height="1" fill="#E0E0E0" />
<rect x="39" y="14" width="1" height="1" fill="#A1887F" />
</svg>