<?xml version="1.0" encoding="UTF-8" ?>
<svg version="1.1" width="45" height="30" xmlns="http://www.w3.org/2000/svg" shape-rendering="crispEdges">
<rect x="3" y="0" width="1" height="1" fill="#FFA000" />
<rect x="11" y="0" width="1" height="1" fill="#FFA000" />
<rect x="18" y="0" width="1" height="1" fill="#FFA000" />
<rect x="26" y="0" width="1" height="1" fill="#FFA000" />
<rect x="33" y="0" width="1" height="1" fill="#FFA000" />
<rect x="41" y="0" width="1" height="1" fill="#FFA000" />
<rect x="2" y="1" width="1" height="3" fill="#FFA000" />
<rect x="3" y="1" width="1" height="4" fill="#E84E40" />
<rect x="4" y="1" width="1" height="1" fill="#FFA000" />
<rect x="10" y="1" width="1" height="1" fill="#FFA000" />
<rect x="11" y="1" width="1" height="4" fill="#E84E40" />
<rect x="12" y="1" width="1" height="8" fill="#FFA000" />
<rect x="17" y="1" width="1" height="3" fill="#FFA000" />
<rect x="18" y="1" width="1" height="4" fill="#E84E40" />
<rect x="19" y="1" width="1" height="1" fill="#FFA000" />
<rect x="25" y="1" width="1" height="1" fill="#FFA000" />
<rect x="26" y="1" width="1" height="4" fill="#E84E40" />
<rect x="27" y="1" width="1" height="8" fill="#FFA000" />
<rect x="32" y="1" width="1" height="3" fill="#FFA000" />
<rect x="33" y="1" width="1" height="4" fill="#E84E40" />
<rect x="34" y="1" width="1" height="1" fill="#FFA000" />
<rect x="40" y="1" width="1" height="1" fill="#FFA000" />
<rect x="41" y="1" width="1" height="4" fill="#E84E40" />
<rect x="42" y="1" width="1" height="8" fill="#FFA000" />
<rect x="4" y="2" width="1" height="1" fill="#B0120A" />
<rect x="5" y="2" width="1" height="1" fill="#FFE082" />
<rect x="9" y="2" width="1" height="1" fill="#FFA000" />
<rect x="10" y="2" width="1" height="1" fill="#B0120A" />
<rect x="19" y="2" width="1" height="1" fill="#B0120A" />
<rect x="20" y="2" width="1" height="1" fill="#FFE082" />
<rect x="24" y="2" width="1" height="1" fill="#FFA000" />
<rect x="25" y="2" width="1" height="1" fill="#B0120A" />
<rect x="34" y="2" width="1" height="1" fill="#B0120A" />
<rect x="35" y="2" width="1" height="1" fill="#FFE082" />
<rect x="39" y="2" width="1" height="1" fill="#FFA000" />
<rect x="40" y="2" width="1" height="1" fill="#B0120A" />
<rect x="4" y="3" width="2" height="1" fill="#E84E40" />
<rect x="6" y="3" width="1" height="1" fill="#FFA000" />
<rect x="8" y="3" width="1" height="1" fill="#FFA000" />
<rect x="9" y="3" width="2" height="1" fill="#E84E40" />
<rect x="19" y="3" width="2" height="1" fill="#E84E40" />
<rect x="21" y="3" width="1" height="1" fill="#FFA000" />
<rect x="23" y="3" width="1" height="1" fill="#FFA000" />
<rect x="24" y="3" width="2" height="1" fill="#E84E40" />
<rect x="34" y="3" width="2" height="1" fill="#E84E40" />
<rect x="36" y="3" width="1" height="1" fill="#FFA000" />
<rect x="38" y="3" width="1" height="1" fill="#FFA000" />
<rect x="39" y="3" width="2" height="1" fill="#E84E40" />
<rect x="2" y="4" width="1" height="1" fill="#FFE082" />
<rect x="4" y="4" width="1" height="1" fill="#B0120A" />
<rect x="5" y="4" width="1" height="1" fill="#E84E40" />
<rect x="6" y="4" width="1" height="1" fill="#B0120A" />
<rect x="7" y="4" width="1" height="1" fill="#FFA000" />
<rect x="8" y="4" width="1" height="1" fill="#B0120A" />
<rect x="9" y="4" width="1" height="1" fill="#E84E40" />
<rect x="10" y="4" width="1" height="1" fill="#B0120A" />
<rect x="17" y="4" width="1" height="1" fill="#FFE082" />
<rect x="19" y="4" width="1" height="1" fill="#B0120A" />
<rect x="20" y="4" width="1" height="1" fill="#E84E40" />
<rect x="21" y="4" width="1" height="1" fill="#B0120A" />
<rect x="22" y="4" width="1" height="1" fill="#FFA000" />
<rect x="23" y="4" width="1" height="1" fill="#B0120A" />
<rect x="24" y="4" width="1" height="1" fill="#E84E40" />
<rect x="25" y="4" width="1" height="1" fill="#B0120A" />
<rect x="32" y="4" width="1" height="1" fill="#FFE082" />
<rect x="34" y="4" width="1" height="1" fill="#B0120A" />
<rect x="35" y="4" width="1" height="1" fill="#E84E40" />
<rect x="36" y="4" width="1" height="1" fill="#B0120A" />
<rect x="37" y="4" width="1" height="1" fill="#FFA000" />
<rect x="38" y="4" width="1" height="1" fill="#B0120A" />
<rect x="39" y="4" width="1" height="1" fill="#E84E40" />
<rect x="40" y="4" width="1" height="1" fill="#B0120A" />
<rect x="2" y="5" width="1" height="4" fill="#FFA000" />
<rect x="3" y="5" width="1" height="1" fill="#B0120A" />
<rect x="4" y="5" width="1" height="1" fill="#E84E40" />
<rect x="5" y="5" width="1" height="1" fill="#B0120A" />
<rect x="6" y="5" width="1" height="1" fill="#E84E40" />
<rect x="7" y="5" width="1" height="1" fill="#B0120A" />
<rect x="8" y="5" width="1" height="1" fill="#E84E40" />
<rect x="9" y="5" width="1" height="1" fill="#B0120A" />
<rect x="10" y="5" width="1" height="1" fill="#E84E40" />
<rect x="11" y="5" width="1" height="1" fill="#B0120A" />
<rect x="17" y="5" width="1" height="4" fill="#FFA000" />
<rect x="18" y="5" width="1" height="1" fill="#B0120A" />
<rect x="19" y="5" width="1" height="1" fill="#E84E40" />
<rect x="20" y="5" width="1" height="1" fill="#B0120A" />
<rect x="21" y="5" width="1" height="1" fill="#E84E40" />
<rect x="22" y="5" width="1" height="1" fill="#B0120A" />
<rect x="23" y="5" width="1" height="1" fill="#E84E40" />
<rect x="24" y="5" width="1" height="1" fill="#B0120A" />
<rect x="25" y="5" width="1" height="1" fill="#E84E40" />
<rect x="26" y="5" width="1" height="1" fill="#B0120A" />
<rect x="32" y="5" width="1" height="4" fill="#FFA000" />
<rect x="33" y="5" width="1" height="1" fill="#B0120A" />
<rect x="34" y="5" width="1" height="1" fill="#E84E40" />
<rect x="35" y="5" width="1" height="1" fill="#B0120A" />
<rect x="36" y="5" width="1" height="1" fill="#E84E40" />
<rect x="37" y="5" width="1" height="1" fill="#B0120A" />
<rect x="38" y="5" width="1" height="1" fill="#E84E40" />
<rect x="39" y="5" width="1" height="1" fill="#B0120A" />
<rect x="40" y="5" width="1" height="1" fill="#E84E40" />
<rect x="41" y="5" width="1" height="1" fill="#B0120A" />
<rect x="3" y="6" width="1" height="1" fill="#E84E40" />
<rect x="4" y="6" width="1" height="1" fill="#B0120A" />
<rect x="5" y="6" width="1" height="1" fill="#E84E40" />
<rect x="6" y="6" width="1" height="1" fill="#B0120A" />
<rect x="7" y="6" width="1" height="1" fill="#E84E40" />
<rect x="8" y="6" width="1" height="1" fill="#B0120A" />
<rect x="9" y="6" width="1" height="1" fill="#E84E40" />
<rect x="10" y="6" width="1" height="1" fill="#B0120A" />
<rect x="11" y="6" width="1" height="1" fill="#E84E40" />
<rect x="18" y="6" width="1" height="1" fill="#E84E40" />
<rect x="19" y="6" width="1" height="1" fill="#B0120A" />
<rect x="20" y="6" width="1" height="1" fill="#E84E40" />
<rect x="21" y="6" width="1" height="1" fill="#B0120A" />
<rect x="22" y="6" width="1" height="1" fill="#E84E40" />
<rect x="23" y="6" width="1" height="1" fill="#B0120A" />
<rect x="24" y="6" width="1" height="1" fill="#E84E40" />
<rect x="25" y="6" width="1" height="1" fill="#B0120A" />
<rect x="26" y="6" width="1" height="1" fill="#E84E40" />
<rect x="33" y="6" width="1" height="1" fill="#E84E40" />
<rect x="34" y="6" width="1" height="1" fill="#B0120A" />
<rect x="35" y="6" width="1" height="1" fill="#E84E40" />
<rect x="36" y="6" width="1" height="1" fill="#B0120A" />
<rect x="37" y="6" width="1" height="1" fill="#E84E40" />
<rect x="38" y="6" width="1" height="1" fill="#B0120A" />
<rect x="39" y="6" width="1" height="1" fill="#E84E40" />
<rect x="40" y="6" width="1" height="1" fill="#B0120A" />
<rect x="41" y="6" width="1" height="1" fill="#E84E40" />
<rect x="3" y="7" width="1" height="6" fill="#B0120A" />
<rect x="4" y="7" width="1" height="1" fill="#E84E40" />
<rect x="5" y="7" width="1" height="5" fill="#B0120A" />
<rect x="6" y="7" width="1" height="1" fill="#E84E40" />
<rect x="7" y="7" width="1" height="5" fill="#B0120A" />
<rect x="8" y="7" width="1" height="1" fill="#E84E40" />
<rect x="9" y="7" width="1" height="5" fill="#B0120A" />
<rect x="10" y="7" width="1" height="1" fill="#E84E40" />
<rect x="11" y="7" width="1" height="6" fill="#B0120A" />
<rect x="18" y="7" width="1" height="6" fill="#B0120A" />
<rect x="19" y="7" width="1" height="1" fill="#E84E40" />
<rect x="20" y="7" width="1" height="5" fill="#B0120A" />
<rect x="21" y="7" width="1" height="1" fill="#E84E40" />
<rect x="22" y="7" width="1" height="5" fill="#B0120A" />
<rect x="23" y="7" width="1" height="1" fill="#E84E40" />
<rect x="24" y="7" width="1" height="5" fill="#B0120A" />
<rect x="25" y="7" width="1" height="1" fill="#E84E40" />
<rect x="26" y="7" width="1" height="6" fill="#B0120A" />
<rect x="33" y="7" width="1" height="6" fill="#B0120A" />
<rect x="34" y="7" width="1" height="1" fill="#E84E40" />
<rect x="35" y="7" width="1" height="5" fill="#B0120A" />
<rect x="36" y="7" width="1" height="1" fill="#E84E40" />
<rect x="37" y="7" width="1" height="5" fill="#B0120A" />
<rect x="38" y="7" width="1" height="1" fill="#E84E40" />
<rect x="39" y="7" width="1" height="5" fill="#B0120A" />
<rect x="40" y="7" width="1" height="1" fill="#E84E40" />
<rect x="41" y="7" width="1" height="6" fill="#B0120A" />
<rect x="4" y="8" width="1" height="1" fill="#B0120A" />
<rect x="6" y="8" width="1" height="1" fill="#B0120A" />
<rect x="8" y="8" width="1" height="1" fill="#B0120A" />
<rect x="10" y="8" width="1" height="1" fill="#B0120A" />
<rect x="19" y="8" width="1" height="1" fill="#B0120A" />
<rect x="21" y="8" width="1" height="1" fill="#B0120A" />
<rect x="23" y="8" width="1" height="1" fill="#B0120A" />
<rect x="25" y="8" width="1" height="1" fill="#B0120A" />
<rect x="34" y="8" width="1" height="1" fill="#B0120A" />
<rect x="36" y="8" width="1" height="1" fill="#B0120A" />
<rect x="38" y="8" width="1" height="1" fill="#B0120A" />
<rect x="40" y="8" width="1" height="1" fill="#B0120A" />
<rect x="2" y="9" width="1" height="4" fill="#EF6C00" />
<rect x="4" y="9" width="1" height="1" fill="#E84E40" />
<rect x="6" y="9" width="1" height="1" fill="#E84E40" />
<rect x="8" y="9" width="1" height="1" fill="#E84E40" />
<rect x="10" y="9" width="1" height="1" fill="#E84E40" />
<rect x="12" y="9" width="1" height="4" fill="#EF6C00" />
<rect x="17" y="9" width="1" height="4" fill="#EF6C00" />
<rect x="19" y="9" width="1" height="1" fill="#E84E40" />
<rect x="21" y="9" width="1" height="1" fill="#E84E40" />
<rect x="23" y="9" width="1" height="1" fill="#E84E40" />
<rect x="25" y="9" width="1" height="1" fill="#E84E40" />
<rect x="27" y="9" width="1" height="4" fill="#EF6C00" />
<rect x="32" y="9" width="1" height="4" fill="#EF6C00" />
<rect x="34" y="9" width="1" height="1" fill="#E84E40" />
<rect x="36" y="9" width="1" height="1" fill="#E84E40" />
<rect x="38" y="9" width="1" height="1" fill="#E84E40" />
<rect x="40" y="9" width="1" height="1" fill="#E84E40" />
<rect x="42" y="9" width="1" height="4" fill="#EF6C00" />
<rect x="4" y="10" width="1" height="3" fill="#B0120A" />
<rect x="6" y="10" width="1" height="2" fill="#B0120A" />
<rect x="8" y="10" width="1" height="2" fill="#B0120A" />
<rect x="10" y="10" width="1" height="3" fill="#B0120A" />
<rect x="19" y="10" width="1" height="3" fill="#B0120A" />
<rect x="21" y="10" width="1" height="2" fill="#B0120A" />
<rect x="23" y="10" width="1" height="2" fill="#B0120A" />
<rect x="25" y="10" width="1" height="3" fill="#B0120A" />
<rect x="34" y="10" width="1" height="3" fill="#B0120A" />
<rect x="36" y="10" width="1" height="2" fill="#B0120A" />
<rect x="38" y="10" width="1" height="2" fill="#B0120A" />
<rect x="40" y="10" width="1" height="3" fill="#B0120A" />
<rect x="5" y="12" width="5" height="1" fill="#A30800" />
<rect x="20" y="12" width="5" height="1" fill="#A30800" />
<rect x="35" y="12" width="5" height="1" fill="#A30800" />
<rect x="2" y="13" width="1" height="2" fill="#BF360C" />
<rect x="3" y="13" width="2" height="1" fill="#A30800" />
<rect x="5" y="13" width="5" height="1" fill="#7B0600" />
<rect x="10" y="13" width="2" height="1" fill="#A30800" />
<rect x="12" y="13" width="1" height="2" fill="#BF360C" />
<rect x="17" y="13" width="1" height="2" fill="#BF360C" />
<rect x="18" y="13" width="2" height="1" fill="#A30800" />
<rect x="20" y="13" width="5" height="1" fill="#7B0600" />
<rect x="25" y="13" width="2" height="1" fill="#A30800" />
<rect x="27" y="13" width="1" height="2" fill="#BF360C" />
<rect x="32" y="13" width="1" height="2" fill="#BF360C" />
<rect x="33" y="13" width="2" height="1" fill="#A30800" />
<rect x="35" y="13" width="5" height="1" fill="#7B0600" />
<rect x="40" y="13" width="2" height="1" fill="#A30800" />
<rect x="42" y="13" width="1" height="2" fill="#BF360C" />
<rect x="3" y="14" width="2" height="1" fill="#7B0600" />
<rect x="5" y="14" width="2" height="1" fill="#FFFACB" />
<rect x="7" y="14" width="3" height="2" fill="#FFF59D" />
<rect x="10" y="14" width="2" height="1" fill="#7B0600" />
<rect x="18" y="14" width="2" height="1" fill="#7B0600" />
<rect x="20" y="14" width="2" height="1" fill="#EEEEEE" />
<rect x="22" y="14" width="3" height="2" fill="#E0E0E0" />
<rect x="25" y="14" width="2" height="1" fill="#7B0600" />
<rect x="33" y="14" width="2" height="1" fill="#7B0600" />
<rect x="35" y="14" width="2" height="1" fill="#BCAAA4" />
<rect x="37" y="14" width="3" height="2" fill="#A1887F" />
<rect x="40" y="14" width="2" height="1" fill="#7B0600" />
<rect x="2" y="15" width="1" height="1" fill="#7B0600" />
<rect x="3" y="15" width="3" height="1" fill="#FFFACB" />
<rect x="6" y="15" width="1" height="1" fill="#FFF59D" />
<rect x="10" y="15" width="2" height="1" fill="#FDD835" />
<rect x="12" y="15" width="1" height="1" fill="#7B0600" />
<rect x="17" y="15" width="1" height="1" fill="#7B0600" />
<rect x="18" y="15" width="1" height="3" fill="#E0E0E0" />
<rect x="19" y="15" width="2" height="1" fill="#EEEEEE" />
<rect x="21" y="15" width="1" height="1" fill="#E0E0E0" />
<rect x="25" y="15" width="2" height="1" fill="#BDBDBD" />
<rect x="27" y="15" width="1" height="1" fill="#7B0600" />
<rect x="32" y="15" width="1" height="1" fill="#7B0600" />
<rect x="33" y="15" width="3" height="1" fill="#BCAAA4" />
<rect x="36" y="15" width="1" height="1" fill="#A1887F" />
<rect x="40" y="15" width="2" height="1" fill="#8D6E63" />
<rect x="42" y="15" width="1" height="1" fill="#7B0600" />
<rect x="2" y="16" width="1" height="1" fill="#FFFACB" />
<rect x="3" y="16" width="3" height="1" fill="#FFF59D" />
<rect x="6" y="16" width="3" height="1" fill="#FBC02D" />
<rect x="9" y="16" width="1" height="1" fill="#FFF59D" />
<rect x="10" y="16" width="1" height="1" fill="#FDD835" />
<rect x="11" y="16" width="2" height="2" fill="#FBC02D" />
<rect x="17" y="16" width="1" height="1" fill="#EEEEEE" />
<rect x="19" y="16" width="2" height="1" fill="#E0E0E0" />
<rect x="21" y="16" width="3" height="1" fill="#9E9E9E" />
<rect x="24" y="16" width="1" height="1" fill="#E0E0E0" />
<rect x="25" y="16" width="1" height="1" fill="#BDBDBD" />
<rect x="26" y="16" width="2" height="2" fill="#9E9E9E" />
<rect x="32" y="16" width="1" height="1" fill="#BCAAA4" />
<rect x="33" y="16" width="3" height="1" fill="#A1887F" />
<rect x="36" y="16" width="3" height="1" fill="#795548" />
<rect x="39" y="16" width="1" height="1" fill="#A1887F" />
<rect x="40" y="16" width="1" height="1" fill="#8D6E63" />
<rect x="41" y="16" width="2" height="2" fill="#795548" />
<rect x="1" y="17" width="1" height="3" fill="#FFFACB" />
<rect x="2" y="17" width="2" height="1" fill="#FFF59D" />
<rect x="4" y="17" width="2" height="1" fill="#FBC02D" />
<rect x="6" y="17" width="2" height="1" fill="#FFFACB" />
<rect x="8" y="17" width="1" height="2" fill="#FDD835" />
<rect x="9" y="17" width="2" height="1" fill="#FFFACB" />
<rect x="13" y="17" width="1" height="1" fill="#FDD835" />
<rect x="16" y="17" width="1" height="3" fill="#EEEEEE" />
<rect x="17" y="17" width="1" height="3" fill="#E0E0E0" />
<rect x="19" y="17" width="2" height="1" fill="#9E9E9E" />
<rect x="21" y="17" width="2" height="1" fill="#EEEEEE" />
<rect x="23" y="17" width="1" height="2" fill="#BDBDBD" />
<rect x="24" y="17" width="2" height="1" fill="#EEEEEE" />
<rect x="28" y="17" width="1" height="1" fill="#BDBDBD" />
<rect x="31" y="17" width="1" height="3" fill="#BCAAA4" />
<rect x="32" y="17" width="2" height="1" fill="#A1887F" />
<rect x="34" y="17" width="2" height="1" fill="#795548" />
<rect x="36" y="17" width="2" height="1" fill="#BCAAA4" />
<rect x="38" y="17" width="1" height="2" fill="#8D6E63" />
<rect x="39" y="17" width="2" height="1" fill="#BCAAA4" />
<rect x="43" y="17" width="1" height="2" fill="#8D6E63" />
<rect x="2" y="18" width="1" height="2" fill="#FFF59D" />
<rect x="3" y="18" width="1" height="2" fill="#FBC02D" />
<rect x="4" y="18" width="3" height="2" fill="#FFFACB" />
<rect x="7" y="18" width="1" height="2" fill="#FDD835" />
<rect x="9" y="18" width="2" height="2" fill="#FBC02D" />
<rect x="11" y="18" width="1" height="1" fill="#FFFACB" />
<rect x="12" y="18" width="1" height="1" fill="#FDD835" />
<rect x="13" y="18" width="1" height="8" fill="#FFF176" />
<rect x="18" y="18" width="1" height="2" fill="#9E9E9E" />
<rect x="19" y="18" width="3" height="2" fill="#EEEEEE" />
<rect x="22" y="18" width="1" height="2" fill="#BDBDBD" />
<rect x="24" y="18" width="2" height="2" fill="#9E9E9E" />
<rect x="26" y="18" width="1" height="1" fill="#EEEEEE" />
<rect x="27" y="18" width="1" height="1" fill="#BDBDBD" />
<rect x="28" y="18" width="1" height="8" fill="#E0E0E0" />
<rect x="32" y="18" width="1" height="2" fill="#A1887F" />
<rect x="33" y="18" width="1" height="2" fill="#795548" />
<rect x="34" y="18" width="3" height="1" fill="#BCAAA4" />
<rect x="37" y="18" width="1" height="2" fill="#8D6E63" />
<rect x="39" y="18" width="2" height="2" fill="#795548" />
<rect x="41" y="18" width="1" height="1" fill="#BCAAA4" />
<rect x="42" y="18" width="1" height="1" fill="#8D6E63" />
<rect x="0" y="19" width="1" height="1" fill="#FFFACB" />
<rect x="8" y="19" width="1" height="3" fill="#FBC02D" />
<rect x="11" y="19" width="1" height="1" fill="#FFF59D" />
<rect x="12" y="19" width="1" height="2" fill="#FFFACB" />
<rect x="14" y="19" width="1" height="5" fill="#FFF176" />
<rect x="15" y="19" width="1" height="1" fill="#EEEEEE" />
<rect x="23" y="19" width="1" height="3" fill="#9E9E9E" />
<rect x="26" y="19" width="1" height="1" fill="#E0E0E0" />
<rect x="27" y="19" width="1" height="2" fill="#EEEEEE" />
<rect x="29" y="19" width="1" height="5" fill="#E0E0E0" />
<rect x="30" y="19" width="1" height="1" fill="#BCAAA4" />
<rect x="34" y="19" width="2" height="1" fill="#BCAAA4" />
<rect x="36" y="19" width="1" height="2" fill="#8D6E63" />
<rect x="38" y="19" width="1" height="3" fill="#795548" />
<rect x="41" y="19" width="1" height="1" fill="#A1887F" />
<rect x="42" y="19" width="1" height="2" fill="#BCAAA4" />
<rect x="43" y="19" width="2" height="5" fill="#A1887F" />
<rect x="0" y="20" width="2" height="3" fill="#FFF59D" />
<rect x="2" y="20" width="1" height="3" fill="#FBC02D" />
<rect x="3" y="20" width="2" height="1" fill="#FFFACB" />
<rect x="5" y="20" width="2" height="1" fill="#FDD835" />
<rect x="7" y="20" width="1" height="3" fill="#FBC02D" />
<rect x="9" y="20" width="1" height="1" fill="#FBC02D" />
<rect x="10" y="20" width="2" height="1" fill="#FDD835" />
<rect x="15" y="20" width="2" height="3" fill="#E0E0E0" />
<rect x="17" y="20" width="1" height="3" fill="#9E9E9E" />
<rect x="18" y="20" width="2" height="1" fill="#EEEEEE" />
<rect x="20" y="20" width="2" height="1" fill="#BDBDBD" />
<rect x="22" y="20" width="1" height="3" fill="#9E9E9E" />
<rect x="24" y="20" width="1" height="1" fill="#9E9E9E" />
<rect x="25" y="20" width="2" height="1" fill="#BDBDBD" />
<rect x="30" y="20" width="2" height="4" fill="#A1887F" />
<rect x="32" y="20" width="1" height="4" fill="#795548" />
<rect x="33" y="20" width="2" height="1" fill="#BCAAA4" />
<rect x="35" y="20" width="1" height="2" fill="#8D6E63" />
<rect x="37" y="20" width="1" height="3" fill="#795548" />
<rect x="39" y="20" width="1" height="1" fill="#795548" />
<rect x="40" y="20" width="2" height="1" fill="#8D6E63" />
<rect x="3" y="21" width="1" height="1" fill="#FFFACB" />
<rect x="4" y="21" width="2" height="1" fill="#FDD835" />
<rect x="6" y="21" width="1" height="3" fill="#FBC02D" />
<rect x="9" y="21" width="2" height="1" fill="#FDD835" />
<rect x="11" y="21" width="1" height="2" fill="#FFF176" />
<rect x="12" y="21" width="1" height="2" fill="#FBC02D" />
<rect x="18" y="21" width="1" height="1" fill="#EEEEEE" />
<rect x="19" y="21" width="2" height="1" fill="#BDBDBD" />
<rect x="21" y="21" width="1" height="3" fill="#9E9E9E" />
<rect x="24" y="21" width="2" height="1" fill="#BDBDBD" />
<rect x="26" y="21" width="1" height="2" fill="#E0E0E0" />
<rect x="27" y="21" width="1" height="2" fill="#9E9E9E" />
<rect x="33" y="21" width="1" height="1" fill="#BCAAA4" />
<rect x="34" y="21" width="1" height="2" fill="#8D6E63" />
<rect x="36" y="21" width="1" height="3" fill="#795548" />
<rect x="39" y="21" width="2" height="1" fill="#8D6E63" />
<rect x="41" y="21" width="1" height="2" fill="#A1887F" />
<rect x="42" y="21" width="1" height="2" fill="#795548" />
<rect x="3" y="22" width="2" height="1" fill="#FDD835" />
<rect x="5" y="22" width="1" height="3" fill="#FBC02D" />
<rect x="8" y="22" width="2" height="1" fill="#FDD835" />
<rect x="10" y="22" width="1" height="3" fill="#FFF176" />
<rect x="18" y="22" width="2" height="1" fill="#BDBDBD" />
<rect x="20" y="22" width="1" height="3" fill="#9E9E9E" />
<rect x="23" y="22" width="2" height="1" fill="#BDBDBD" />
<rect x="25" y="22" width="1" height="3" fill="#E0E0E0" />
<rect x="33" y="22" width="1" height="1" fill="#8D6E63" />
<rect x="35" y="22" width="1" height="3" fill="#795548" />
<rect x="38" y="22" width="2" height="1" fill="#8D6E63" />
<rect x="40" y="22" width="1" height="3" fill="#A1887F" />
<rect x="0" y="23" width="1" height="1" fill="#FFF59D" />
<rect x="1" y="23" width="2" height="1" fill="#FFF176" />
<rect x="3" y="23" width="1" height="2" fill="#FFFACB" />
<rect x="4" y="23" width="1" height="2" fill="#FBC02D" />
<rect x="7" y="23" width="2" height="1" fill="#FDD835" />
<rect x="9" y="23" width="1" height="2" fill="#FFF176" />
<rect x="11" y="23" width="1" height="2" fill="#FBC02D" />
<rect x="12" y="23" width="1" height="4" fill="#FFF176" />
<rect x="15" y="23" width="4" height="1" fill="#EEEEEE" />
<rect x="19" y="23" width="1" height="2" fill="#9E9E9E" />
<rect x="22" y="23" width="2" height="1" fill="#BDBDBD" />
<rect x="24" y="23" width="1" height="2" fill="#E0E0E0" />
<rect x="26" y="23" width="1" height="2" fill="#9E9E9E" />
<rect x="27" y="23" width="1" height="4" fill="#E0E0E0" />
<rect x="33" y="23" width="1" height="2" fill="#BCAAA4" />
<rect x="34" y="23" width="1" height="2" fill="#795548" />
<rect x="37" y="23" width="2" height="1" fill="#8D6E63" />
<rect x="39" y="23" width="1" height="2" fill="#A1887F" />
<rect x="41" y="23" width="1" height="2" fill="#795548" />
<rect x="42" y="23" width="1" height="4" fill="#A1887F" />
<rect x="0" y="24" width="1" height="1" fill="#BF360C" />
<rect x="1" y="24" width="2" height="1" fill="#FDD835" />
<rect x="6" y="24" width="2" height="1" fill="#FDD835" />
<rect x="8" y="24" width="1" height="2" fill="#FFF176" />
<rect x="14" y="24" width="1" height="1" fill="#BF360C" />
<rect x="15" y="24" width="1" height="1" fill="#424242" />
<rect x="16" y="24" width="2" height="1" fill="#BDBDBD" />
<rect x="18" y="24" width="1" height="1" fill="#EEEEEE" />
<rect x="21" y="24" width="2" height="1" fill="#BDBDBD" />
<rect x="23" y="24" width="1" height="2" fill="#E0E0E0" />
<rect x="29" y="24" width="1" height="1" fill="#424242" />
<rect x="30" y="24" width="1" height="1" fill="#4E342E" />
<rect x="31" y="24" width="2" height="1" fill="#8D6E63" />
<rect x="36" y="24" width="2" height="1" fill="#8D6E63" />
<rect x="38" y="24" width="1" height="2" fill="#A1887F" />
<rect x="43" y="24" width="1" height="2" fill="#A1887F" />
<rect x="44" y="24" width="1" height="1" fill="#4E342E" />
<rect x="1" y="25" width="1" height="1" fill="#FDD835" />
<rect x="2" y="25" width="2" height="2" fill="#FBC02D" />
<rect x="4" y="25" width="1" height="1" fill="#FFFACB" />
<rect x="5" y="25" width="2" height="1" fill="#FDD835" />
<rect x="7" y="25" width="1" height="1" fill="#FFF176" />
<rect x="9" y="25" width="2" height="1" fill="#FBC02D" />
<rect x="11" y="25" width="1" height="3" fill="#FFF176" />
<rect x="16" y="25" width="1" height="1" fill="#424242" />
<rect x="17" y="25" width="2" height="2" fill="#9E9E9E" />
<rect x="19" y="25" width="1" height="1" fill="#EEEEEE" />
<rect x="20" y="25" width="2" height="1" fill="#BDBDBD" />
<rect x="22" y="25" width="1" height="1" fill="#E0E0E0" />
<rect x="24" y="25" width="2" height="1" fill="#9E9E9E" />
<rect x="26" y="25" width="1" height="3" fill="#E0E0E0" />
<rect x="31" y="25" width="1" height="1" fill="#8D6E63" />
<rect x="32" y="25" width="2" height="2" fill="#795548" />
<rect x="34" y="25" width="1" height="1" fill="#BCAAA4" />
<rect x="35" y="25" width="2" height="1" fill="#8D6E63" />
<rect x="37" y="25" width="1" height="1" fill="#A1887F" />
<rect x="39" y="25" width="2" height="1" fill="#795548" />
<rect x="41" y="25" width="1" height="3" fill="#A1887F" />
<rect x="1" y="26" width="1" height="1" fill="#BF360C" />
<rect x="4" y="26" width="1" height="2" fill="#FDD835" />
<rect x="5" y="26" width="2" height="1" fill="#FFFACB" />
<rect x="7" y="26" width="2" height="1" fill="#FBC02D" />
<rect x="9" y="26" width="2" height="2" fill="#FFF176" />
<rect x="13" y="26" width="1" height="1" fill="#BF360C" />
<rect x="19" y="26" width="1" height="2" fill="#BDBDBD" />
<rect x="20" y="26" width="2" height="1" fill="#EEEEEE" />
<rect x="22" y="26" width="2" height="1" fill="#9E9E9E" />
<rect x="24" y="26" width="2" height="2" fill="#E0E0E0" />
<rect x="28" y="26" width="1" height="1" fill="#424242" />
<rect x="31" y="26" width="1" height="1" fill="#4E342E" />
<rect x="34" y="26" width="1" height="2" fill="#8D6E63" />
<rect x="35" y="26" width="2" height="1" fill="#BCAAA4" />
<rect x="37" y="26" width="2" height="1" fill="#795548" />
<rect x="39" y="26" width="2" height="2" fill="#A1887F" />
<rect x="43" y="26" width="1" height="1" fill="#4E342E" />
<rect x="2" y="27" width="1" height="1" fill="#BF360C" />
<rect x="3" y="27" width="1" height="1" fill="#FDD835" />
<rect x="5" y="27" width="4" height="2" fill="#FFF176" />
<rect x="12" y="27" width="1" height="1" fill="#BF360C" />
<rect x="17" y="27" width="1" height="1" fill="#424242" />
<rect x="18" y="27" width="1" height="1" fill="#BDBDBD" />
<rect x="20" y="27" width="4" height="2" fill="#E0E0E0" />
<rect x="27" y="27" width="1" height="1" fill="#424242" />
<rect x="32" y="27" width="1" height="1" fill="#4E342E" />
<rect x="33" y="27" width="1" height="1" fill="#8D6E63" />
<rect x="35" y="27" width="4" height="2" fill="#A1887F" />
<rect x="42" y="27" width="1" height="1" fill="#4E342E" />
<rect x="3" y="28" width="2" height="1" fill="#BF360C" />
<rect x="9" y="28" width="1" height="1" fill="#FFF176" />
<rect x="10" y="28" width="2" height="1" fill="#BF360C" />
<rect x="18" y="28" width="2" height="1" fill="#424242" />
<rect x="24" y="28" width="1" height="1" fill="#E0E0E0" />
<rect x="25" y="28" width="2" height="1" fill="#424242" />
<rect x="33" y="28" width="2" height="1" fill="#4E342E" />
<rect x="39" y="28" width="1" height="1" fill="#A1887F" />
<rect x="40" y="28" width="2" height="1" fill="#4E342E" />
<rect x="5" y="29" width="5" height="1" fill="#BF360C" />
<rect x="20" y="29" width="5" height="1" fill="#424242" />
<rect x="35" y="29" width="5" height="1" fill="#4E342E" />
</svg>