<?xml version="1.0" encoding="UTF-8" standalone="no"?><!DOCTYPE svg PUBLIC "-//W3C//DTD SVG 1.1//EN" "http://www.w3.org/Graphics/SVG/1.1/DTD/svg11.dtd"><svg width="100%" height="100%" viewBox="0 0 254 254" version="1.1" xmlns="http://www.w3.org/2000/svg" xmlns:xlink="http://www.w3.org/1999/xlink" xml:space="preserve" xmlns:serif="http://www.serif.com/" style="fill-rule:evenodd;clip-rule:evenodd;stroke-linejoin:round;stroke-miterlimit:2;"><circle cx="126.761" cy="126.761" r="126.761" style="fill:url(#_Radial1);"/><g transform="matrix(1,0,0,0.966913,0,-5.73967)"><g transform="matrix(346.922046,0,0,346.922046,30.489695,216.999769)"><path d="M0.452,-0.329c0.015,0 0.027,0.005 0.037,0.016c0.01,0.01 0.016,0.023 0.016,0.038c0,0.009 -0.002,0.018 -0.006,0.028c-0.011,0.025 -0.026,0.045 -0.045,0.062c-0.019,0.017 -0.041,0.025 -0.064,0.025c-0.019,0 -0.035,-0.007 -0.047,-0.02c-0.013,-0.013 -0.02,-0.031 -0.02,-0.054c0,-0.013 0.001,-0.026 0.002,-0.041c0.001,-0.011 0.002,-0.018 0.002,-0.022c0,-0.005 -0.001,-0.009 -0.004,-0.012c-0.002,-0.003 -0.005,-0.004 -0.009,-0.004c-0.009,0 -0.022,0.011 -0.038,0.033c-0.016,0.022 -0.032,0.052 -0.048,0.089c-0.016,0.037 -0.029,0.075 -0.039,0.116c-0.007,0.032 -0.016,0.053 -0.025,0.064c-0.009,0.011 -0.025,0.016 -0.046,0.016c-0.025,-0 -0.043,-0.013 -0.054,-0.04c-0.01,-0.027 -0.015,-0.069 -0.015,-0.128c0,-0.087 0.012,-0.169 0.037,-0.247c0.006,-0.019 0.016,-0.033 0.029,-0.042c0.014,-0.009 0.033,-0.014 0.058,-0.014c0.013,0 0.023,0.002 0.028,0.005c0.005,0.003 0.008,0.01 0.008,0.019c0,0.011 -0.005,0.035 -0.015,0.072c-0.007,0.027 -0.012,0.05 -0.016,0.07c-0.004,0.02 -0.007,0.045 -0.01,0.074c0.022,-0.057 0.047,-0.104 0.074,-0.14c0.027,-0.036 0.054,-0.062 0.08,-0.077c0.026,-0.015 0.05,-0.023 0.071,-0.023c0.019,0 0.034,0.006 0.044,0.017c0.01,0.011 0.016,0.027 0.016,0.048c0,0.013 -0.004,0.037 -0.011,0.072l0.009,0Z" style="fill:#fff;fill-rule:nonzero;"/></g><g transform="matrix(346.922046,0,0,346.922046,30.489695,216.999769)"></g><g transform="matrix(346.922046,0,0,346.922046,202.216108,216.999769)"></g></g><defs><radialGradient id="_Radial1" cx="0" cy="0" r="1" gradientUnits="userSpaceOnUse" gradientTransform="matrix(130.539927,-112.810947,112.810947,130.539927,75.145402,145.626322)"><stop offset="0" style="stop-color:#ba3a00;stop-opacity:1"/><stop offset="1" style="stop-color:#d96526;stop-opacity:1"/></radialGradient></defs></svg>