<?xml version="1.0" encoding="UTF-8" standalone="no"?><!DOCTYPE svg PUBLIC "-//W3C//DTD SVG 1.1//EN" "http://www.w3.org/Graphics/SVG/1.1/DTD/svg11.dtd"><svg width="100%" height="100%" viewBox="0 0 254 254" version="1.1" xmlns="http://www.w3.org/2000/svg" xmlns:xlink="http://www.w3.org/1999/xlink" xml:space="preserve" xmlns:serif="http://www.serif.com/" style="fill-rule:evenodd;clip-rule:evenodd;stroke-linejoin:round;stroke-miterlimit:2;"><circle cx="126.077" cy="127.445" r="126.077" style="fill:#277ba3;"/><g><path d="M71.295,49.883l78.311,0l-0,0.007l0.838,-0.007c20.508,0 38.041,12.834 45.001,30.901c2.07,5.372 3.204,11.207 3.204,17.305c0,24.061 -17.666,44.028 -40.724,47.627l30.356,44.195c0.15,0.209 0.295,0.42 0.436,0.635c0.914,1.454 1.442,3.173 1.442,5.015c0,5.212 -4.231,9.443 -9.443,9.443l-22.625,-0c-31.602,0 -49.91,-27.684 -48.119,-59.235c0.851,-14.982 3.977,-28.781 13.223,-39.839l13.767,10.01l7.619,-45.74l-41.163,21.349l14.57,10.594c-15.057,26.111 -40.079,47.45 -63.118,54.611l-0,-90.45c0,-9.064 7.359,-16.424 16.424,-16.424Z" style="fill:#fff;"/><path d="M114.06,173.714c-3.218,-8.432 -4.651,-17.996 -4.086,-27.944c0.851,-14.982 3.977,-28.781 13.223,-39.839l13.767,10.01l7.077,-42.487l0.71,-0.443l-5.892,51.163l-14.136,-10.675c-8.825,12.62 -11.429,28.083 -11.716,44.786c-0.091,5.285 0.269,10.458 1.053,15.429Z" style="fill:#1f0600;fill-opacity:0.2;"/></g></svg>